<?xml version="1.0" encoding="UTF-8" standalone="no"?>
<!-- Created with Inkscape (http://www.inkscape.org/) -->

<svg
   xmlns:dc="http://purl.org/dc/elements/1.1/"
   xmlns:cc="http://creativecommons.org/ns#"
   xmlns:rdf="http://www.w3.org/1999/02/22-rdf-syntax-ns#"
   xmlns:svg="http://www.w3.org/2000/svg"
   xmlns="http://www.w3.org/2000/svg"
   xmlns:sodipodi="http://sodipodi.sourceforge.net/DTD/sodipodi-0.dtd"
   xmlns:inkscape="http://www.inkscape.org/namespaces/inkscape"
   width="1000mm"
   height="3000mm"
   viewBox="0 -2000 1000 1000"
   version="1.1"
   id="svg8"
   inkscape:version="0.92.2 5c3e80d, 2017-08-06"
   sodipodi:docname="drawing.svg">

<path d="M298.76,-999.96 L298.76,-999.96 L299.2,-999.84 L299.64,-999.84 L300.0,-999.92 L300.36,-1000.04 L300.88,-1000.48 L301.6,-1001.0 L302.0,-1001.24 L302.36,-1001.52 L302.76,-1001.76 L303.12,-1002.08 L303.52,-1002.36 L304.0,-1002.72 L304.48,-1003.16 L305.12,-1003.64 L305.76,-1004.08 L306.44,-1004.48 L307.04,-1004.88 L307.6,-1005.2 L308.32,-1005.64 L309.12,-1006.12 L310.08,-1006.6 L311.12,-1007.16 L312.24,-1007.76 L313.48,-1008.32 L314.6,-1008.88 L315.68,-1009.36 L316.56,-1009.76 L317.32,-1010.04 L318.0,-1010.36 L318.6,-1010.64 L319.2,-1010.88 L319.76,-1011.12 L320.2,-1011.36 L320.56,-1011.56 L321.0,-1011.96 L321.0,-1011.96 L321.0,-1011.96"/> 

</svg>
