<svg xmlns="http://www.w3.org/2000/svg" xmlns:xlink="http://www.w3.org/1999/xlink" width="116.62mm" height="108.19999999999999mm" viewBox="392.01 339.73 508.63 447.93"> <path stroke="black" fill="none" d="M444.06,339.76  L444.06 339.76,444.09 339.73,444.07 339.75,444.06 339.76,443.94 339.8,443.83 339.84,443.58 339.92,443.1 339.99,442.41 340.09,441.53 340.2,440.48 340.32,439.45 340.45,438.33 340.64,437.18 340.89,436.21 341.22,435.33 341.56,434.77 341.9,434.52 342.19,434.52 342.19"/>
<path stroke="black" fill="none" d="M449.12,344.1  L449.12 344.1,449.42 344.1,449.67 344.12,449.88 344.18,450.01 344.23,450.17 344.33,450.28 344.44,450.45 344.63,450.68 344.88,450.78 345.19,450.78 345.53,450.7 345.88,450.45 346.24,450.07 346.62,449.56 347.02,448.81 347.4,447.93 347.73,446.94 348.02,445.89 348.23,444.88 348.38,443.86 348.47,442.99 348.49,442.16 348.45,441.4 348.38,440.67 348.28,439.93 348.19,439.28 348.09,438.73 348.0,438.42 347.92,438.25 347.9,438.23 347.9,438.25 347.94,438.25 348.02,438.31 348.13,438.27 348.28,438.38 348.51,438.48 348.8,438.67 349.16,438.99 349.66,439.26 350.19,439.57 350.73,439.82 351.28,440.12 351.8,440.43 352.33,440.81 352.87,441.21 353.36,441.55 353.84,441.95 354.28,442.37 354.64,442.74 354.95,442.74 354.95"/>
<path stroke="black" fill="none" d="M453.38,353.78  L453.38 353.78,453.49 353.99,453.57 354.26,453.66 354.62,453.72 355.01,453.83 355.41,453.91 355.83,454.06 356.25,454.16 356.71,454.25 357.09,454.39 357.39,454.37 357.64,454.25 357.78,454.12 357.89,453.91 357.95,453.49 357.97,452.86 357.97,452.15 357.91,451.33 357.85,450.57 357.79,449.98 357.72,449.29 357.72,448.66 357.78,448.12 357.91,447.67 358.08,447.4 358.33,447.21 358.62,447.11 358.94,447.03 359.34,447.05 359.76,447.11 360.18,447.21 360.58,447.38 360.95,447.46 361.27,447.55 361.52,447.57 361.71,447.57 361.84,447.55 361.9,447.51 361.94,447.42 361.92,447.19 361.86,446.9 361.73,446.46 361.54,445.93 361.29,445.35 360.98,444.69 360.64,444.0 360.28,443.22 359.88,442.43 359.48,441.69 359.09,440.96 358.79,440.48 358.56,440.06 358.44,439.82 358.42,439.78 358.44,439.66 358.5,439.66 358.5"/>
<path stroke="black" fill="none" d="M462.58,366.2  L462.58 366.2,462.64 366.22,462.66 366.24,462.64 366.24,462.62 366.24,462.56 366.2,462.47 366.14,462.3 366.08,461.95 366.03,461.44 365.97,460.69 365.91,459.81 365.85,458.88 365.82,457.94 365.78,456.99 365.76,456.09 365.74,455.34 365.78,454.58 365.84,454.04 365.95,453.57 366.08,453.19 366.24,452.94 366.41,452.73 366.64,452.63 366.89,452.61 367.13,452.69 367.4,452.92 367.65,453.28 367.9,453.83 368.17,454.46 368.41,455.13 368.64,455.71 368.89,456.09 369.12,456.47 369.35,456.79 369.58,457.02 369.77,457.18 369.9,457.18 370.02,457.02 370.11,456.76 370.19,456.45 370.29,455.84 370.4,455.1 370.51,454.27 370.63,453.32 370.74,452.48 370.86,451.58 371.01,450.66 371.2,449.8 371.41,449.04 371.64,448.41 371.87,448.05 372.16,447.86 372.46,447.86 372.46"/>
<path stroke="black" fill="none" d="M463.35,377.16  L463.35 377.16,463.19 377.07,462.96 376.93,462.62 376.8,462.09 376.63,461.53 376.49,460.92 376.36,460.23 376.26,459.62 376.23,459.07 376.26,458.63 376.36,458.3 376.53,458.13 376.74,457.98 377.01,457.94 377.31,457.98 377.64,458.06 378.0,458.21 378.4,458.36 378.8,458.49 379.21,458.61 379.59,458.59 379.95,458.49 380.29,458.28 380.64,457.96 380.96,457.54 381.23,457.02 381.46,456.37 381.65,455.63 381.8,454.9 381.92,454.27 381.99,453.85 382.01,453.55 382.01,453.38 381.96,453.28 381.84,453.15 381.63,453.13 381.31,453.2 380.92,453.43 380.43,453.43 380.43"/>
<path stroke="black" fill="none" d="M462.73,373.78  L462.73 373.78,462.89 373.91,462.96 374.07,463.1 374.28,463.29 374.58,463.52 374.96,463.77 375.5,464.13 376.15,464.55 376.91,465.07 377.75,465.66 378.63,466.34 379.57,467.09 380.58,467.97 381.61,468.85 382.68,469.67 383.77,470.49 384.8,471.18 385.79,471.85 386.69,471.85 386.69"/>
<path stroke="black" fill="none" d="M477.65,391.56  L477.65 391.56,477.56 391.35,477.33 391.12,477.02 390.84,476.6 390.55,476.12 390.26,475.55 389.98,474.98 389.71,474.39 389.48,473.64 389.31,472.78 389.18,471.81 389.1,470.68 389.08,469.55 389.14,468.41 389.25,467.19 389.48,465.98 389.82,464.85 390.23,463.88 390.72,463.14 391.22,462.62 391.73,462.35 392.25,462.28 392.73,462.33 393.21,462.51 393.66,462.73 394.1,463.08 394.5,463.52 394.83,464.05 395.08,464.63 395.23,465.2 395.29,465.71 395.29,466.13 395.19,466.59 395.02,466.97 394.77,467.22 394.41,467.41 393.97,467.4 393.49,467.26 392.99,466.97 392.5,466.55 392.06,466.06 391.66,465.35 391.35,464.59 391.12,463.77 390.99,462.85 390.97,462.07 391.09,461.44 391.35,460.84 391.72,460.84 391.72"/>
<path stroke="black" fill="none" d="M479.5,397.45  L479.5 397.45,479.52 397.41,479.5 397.39,479.43 397.37,479.33 397.37,479.16 397.37,478.91 397.39,478.59 397.45,478.15 397.54,477.69 397.64,477.21 397.79,476.79 397.96,476.45 398.11,476.24 398.27,476.18 398.42,476.18 398.53,476.24 398.63,476.31 398.72,476.41 398.84,476.64 398.99,477.04 399.18,477.59 399.37,478.34 399.57,479.2 399.74,480.1 399.89,480.98 400.08,481.72 400.29,482.35 400.5,482.81 400.73,483.21 400.96,483.44 401.19,483.57 401.42,483.53 401.63,483.38 401.82,483.21 401.99,482.81 402.16,482.33 402.3,481.64 402.43,480.75 402.58,479.87 402.74,478.99 402.93,478.19 403.1,477.54 403.23,476.91 403.39,476.39 403.54,475.86 403.71,475.28 403.92,474.77 404.11,474.21 404.3,473.77 404.45,473.43 404.61,473.13 404.74,472.91 404.89,472.67 405.01,472.38 405.12,472.38 405.12"/>
<path stroke="black" fill="none" d="M473.58,403.44  L473.58 403.44,473.79 403.06,473.97 402.75,474.08 402.51,474.16 402.35,474.27 402.3,474.39 402.28,474.5 402.28,474.63 402.32,474.75 402.37,474.81 402.45,474.92 402.54,475.07 402.68,475.23 402.87,475.47 403.16,475.76 403.5,476.05 403.9,476.39 404.34,476.75 404.82,477.31 405.39,478.01 406.04,478.84 406.77,479.75 407.49,480.55 408.2,481.24 408.85,481.24 408.85"/>
<path stroke="black" fill="none" d="M489.57,410.74  L489.57 410.74,489.47 410.6,489.21 410.49,488.98 410.39,488.73 410.36,488.48 410.38,488.21 410.43,487.89 410.6,487.51 410.85,487.07 411.2,486.69 411.66,486.27 412.21,485.88 412.82,485.5 413.51,485.12 414.25,484.7 414.98,484.36 415.69,483.99 416.28,483.65 416.79,483.34 417.21,483.1 417.54,482.83 417.81,482.58 417.96,482.41 418.05,482.16 418.07,481.99 418.03,481.76 417.96,481.55 417.77,481.28 417.52,481.09 417.18,480.99 416.77,480.9 416.33,480.98 415.86,481.07 415.38,481.2 414.94,481.55 414.54,482.08 414.23,482.75 414.02,483.59 413.93,484.41 413.95,485.2 414.04,485.98 414.21,486.76 414.44,487.45 414.71,488.12 415.0,488.73 415.27,489.26 415.51,489.74 415.69,490.03 415.82,490.28 415.9,490.47 415.95,490.6 415.93,490.77 415.86,490.85 415.76,490.93 415.57,490.98 415.28,491.02 414.96,491.02 414.62,490.95 414.27,490.85 413.99,490.68 413.7,490.45 413.39,490.2 413.13,489.99 412.94,489.89 412.88,489.7 412.95,489.57 413.15,489.57 413.15"/>
<path stroke="black" fill="none" d="M497.27,422.87  L497.27 422.87,497.31 422.81,497.38 422.77,497.4 422.69,497.44 422.6,497.4 422.5,497.36 422.39,497.27 422.27,497.1 422.14,496.89 421.95,496.48 421.76,496.08 421.55,495.59 421.4,495.05 421.28,494.59 421.22,494.17 421.26,493.96 421.34,493.64 421.49,493.37 421.7,493.12 421.95,492.95 422.29,493.07 422.68,493.35 423.12,493.77 423.61,494.25 424.05,494.78 424.47,495.24 424.82,495.64 425.1,495.93 425.35,496.1 425.54,496.14 425.67,496.1 425.81,495.93 425.94,495.66 426.09,495.24 426.29,494.65 426.5,493.98 426.67,493.26 426.86,492.55 427.01,491.82 427.18,491.19 427.32,490.7 427.43,490.24 427.51,489.97 427.53,489.74 427.55,489.47 427.51,489.34 427.45,489.17 427.37,488.98 427.26,488.75 427.11,488.52 426.95,488.33 426.78,488.21 426.61,488.1 426.44,488.0 426.23,487.85 425.9,487.66 425.52,487.49 425.04,487.45 424.6,487.56 424.28,487.56 424.28"/>
<path stroke="black" fill="none" d="M503.17,432.68  L503.17 432.68,503.07 432.67,502.96 432.68,502.71 432.74,502.21 432.82,501.51 432.93,500.55 433.1,499.44 433.31,498.34 433.56,497.19 433.85,496.04 434.14,495.07 434.44,494.25 434.75,493.73 435.03,493.5 435.36,493.5 435.36"/>
<path stroke="black" fill="none" d="M502.86,438.7  L502.86 438.7,501.91 438.68,500.84 438.76,500.0 438.91,499.27 439.14,498.76 439.46,498.55 439.83,498.39 440.21,498.41 440.61,498.68 441.03,499.18 441.49,499.88 441.91,500.76 442.31,501.68 442.62,502.69 442.81,503.7 442.92,504.7 442.96,505.61 442.92,506.38 442.85,507.07 442.71,507.66 442.52,508.08 442.31,508.38 442.04,508.56 441.78,508.61 441.53,508.63 441.24,508.54 440.99,508.25 440.74,507.64 440.5,506.84 440.25,506.84 440.25"/>
<path stroke="black" fill="none" d="M414.05,353.88  L414.05 353.88,414.07 353.88,414.03 353.9,413.9 353.99,413.67 354.18,413.25 354.51,412.71 355.01,412.06 355.66,411.11 356.55,409.89 357.62,408.42 358.84,406.6 360.14,404.73 361.4,402.86 362.63,401.0 363.75,399.34 364.77,397.91 365.63,396.75 366.33,395.79 366.94,395.01 367.46,394.32 367.9,393.71 368.24,393.19 368.47,392.83 368.62,392.58 368.72,392.47 368.74,392.45 368.74,392.51 368.72,392.52 368.68,392.47 368.62,392.56 368.51,392.72 368.32,393.08 368.05,393.84 367.63,394.68 367.11,394.68 367.11"/>
<path stroke="black" fill="none" d="M411.64,356.23  L411.64 356.23,411.78 356.06,411.87 355.96,411.95 355.9,411.99 355.85,412.03 355.81,412.08 355.77,412.12 355.77,412.24 355.75,412.24 355.77,412.25 355.77,412.27 355.79,412.24 355.79,412.2 355.81,412.22 355.83,412.2 355.85,412.24 355.85,412.24 355.87,412.25 355.88,412.27 355.9,412.29 355.96,412.35 356.04,412.45 356.13,412.6 356.27,412.83 356.46,413.11 356.67,413.44 356.93,413.78 357.26,414.11 357.64,414.45 358.02,414.83 358.42,415.21 358.86,415.65 359.36,416.04 359.91,416.42 360.51,416.78 361.16,417.16 361.82,417.55 362.53,417.91 363.28,418.35 364.02,418.81 364.77,419.28 365.59,419.84 366.47,420.35 367.36,420.93 368.32,421.58 369.31,422.24 370.32,422.97 371.39,423.7 372.5,424.44 373.67,425.18 374.85,425.91 376.05,426.6 377.3,427.3 378.54,428.15 379.8,428.93 381.1,429.69 382.38,430.51 383.69,431.26 385.05,432.06 386.39,432.88 387.76,433.46 389.19,433.99 390.63,434.54 392.08,435.23 393.63,436.05 395.13,436.95 396.74,437.85 398.36,438.76 399.99,439.68 401.65,440.69 403.29,441.76 404.99,442.81 406.71,443.9 408.41,444.99 410.11,446.02 411.83,447.05 413.53,448.07 415.25,449.0 417.0,450.0 418.76,450.99 420.48,452.02 422.24,453.15 423.97,454.29 425.73,455.36 427.45,456.51 429.07,457.69 430.6,458.84 431.98,460.06 433.28,461.17 434.46,462.18 435.55,463.06 436.56,463.82 437.46,464.47 438.2,464.97 438.8,465.43 439.24,465.79 439.54,466.0 439.73,466.12 439.85,466.13 439.85,466.1 439.81,466.06 439.69,465.98 439.54,465.91 439.37,465.83 439.2,465.71 439.04,465.66 438.89,465.6 438.8,465.47 438.7,465.43 438.62,465.35 438.55,465.31 438.49,465.26 438.49,465.22 438.47,465.03 438.49,464.91 438.53,464.82 438.61,464.55 438.7,464.26 438.83,463.71 439.04,462.83 439.35,461.61 439.79,460.06 440.32,458.28 440.94,456.41 441.57,454.67 442.21,453.11 442.88,451.64 443.59,450.38 444.28,449.27 444.89,448.33 445.44,447.68 445.9,447.25 446.28,447.02 446.63,446.92 446.91,446.96 447.1,447.15 447.16,447.46 447.05,447.46 447.05"/>
<path stroke="black" fill="none" d="M394.59,367.96  L394.59 367.96,394.53 367.92,394.51 367.9,394.55 367.9,394.53 367.9,394.55 367.9,394.53 367.92,394.57 367.94,394.57 367.97,394.53 368.01,394.53 368.07,394.42 368.15,394.4 368.22,394.47 368.36,394.47 368.53,394.55 368.72,394.59 369.01,394.63 369.33,394.74 369.73,394.85 370.23,395.08 370.74,395.33 371.3,395.62 371.91,395.94 372.58,396.31 373.3,396.67 374.11,397.07 374.93,397.45 375.77,397.93 376.63,398.41 377.49,398.87 378.36,399.36 379.24,399.76 380.14,400.2 381.04,400.7 381.96,401.16 382.87,401.65 383.79,402.17 384.71,402.61 385.6,403.12 386.54,403.58 387.44,404.02 388.35,404.5 389.29,404.94 390.23,405.44 391.28,405.97 392.36,406.56 393.51,407.15 394.68,407.79 395.84,408.38 396.97,409.1 398.11,409.87 399.26,410.65 400.42,411.55 401.59,412.37 402.75,413.23 403.92,414.18 405.1,415.08 406.33,416.02 407.57,416.99 408.83,417.89 410.13,418.73 411.43,419.57 412.72,420.41 414.06,421.29 415.4,422.17 416.79,423.05 418.17,423.87 419.52,424.69 420.86,425.49 422.14,426.27 423.42,427.08 424.76,427.92 426.08,428.78 427.39,429.67 428.65,430.57 429.88,431.41 431.0,432.27 432.09,433.03 433.12,433.8 434.1,434.52 435.05,435.19 435.99,435.86 436.89,436.45 437.76,436.99 438.59,437.41 439.35,437.81 440.06,438.17 440.73,438.55 441.36,438.94 441.91,439.36 442.44,439.74 442.9,440.1 443.3,440.41 443.63,440.66 443.84,440.85 443.97,440.96 444.03,441.0 444.05,440.96 444.03,440.94 444.03,440.92 444.05,440.92 444.07,440.94 444.09,440.94 444.12,440.96 444.16,441.0 444.24,441.11 444.35,441.23 444.49,441.34 444.68,441.48 444.87,441.53 445.12,441.71 445.42,441.92 445.73,442.09 446.03,442.32 446.34,442.47 446.57,442.55 446.78,442.66 446.95,442.78 447.1,442.87 447.22,442.93 447.33,442.95 447.39,442.95 447.43,442.95 447.47,442.93 447.49,442.89 447.49,442.91 447.45,442.87 447.41,442.93 447.41,442.91 447.39,442.87 447.39,442.83 447.39,442.74 447.39,442.7 447.43,442.68 447.45,442.62 447.49,442.57 447.51,442.51 447.56,442.41 447.64,442.36 447.7,442.3 447.75,442.28 447.81,442.24 447.83,442.26 447.85,442.34 447.87,442.37 447.85,442.43 447.85,442.47 447.83,442.45 447.83,442.51 447.81,442.53 447.81,442.58 447.79,442.66 447.79,442.74 447.79,442.89 447.79,442.93 447.79,442.99 447.79,443.02 447.79,443.06 447.79,442.99 447.79,442.97 447.79,442.95 447.79,442.99 447.79,442.99 447.77,443.0 447.77,443.02 447.77,443.06 447.75,443.04 447.75,443.0 447.75,442.99 447.75,442.93 447.75,442.89 447.73,442.91 447.72,442.91 447.73,442.95 447.73,442.97 447.73,442.97 447.75,442.95 447.77,442.93 447.75,442.91 447.75,442.87 447.75,442.85 447.77,442.79 447.79,442.76 447.79,442.76 447.81,442.74 447.81,442.72 447.81,442.7 447.83,442.64 447.85,442.62 447.85,442.66 447.87,442.68 447.89,442.68 447.91,442.7 447.93,442.64 447.93,442.68 447.91,442.7 447.91,442.66 447.91,442.66 447.93,442.64 447.91,442.66 447.91,442.68 447.91,442.7 447.91,442.74 447.93,442.79 447.93,442.79 447.91,442.79 447.89,442.81 447.85,442.87 447.75,443.04 447.6,443.44 447.2,444.09 446.49,444.09 446.49"/>
<path stroke="black" fill="none" d="M415.37,359.15  L415.37 359.15,415.39 359.15,415.41 359.15,415.35 359.15,415.35 359.17,415.37 359.21,415.35 359.21,415.33 359.23,415.33 359.25,415.31 359.25,415.25 359.26,415.16 359.3,414.97 359.32,414.62 359.4,414.09 359.51,413.32 359.61,412.25 359.74,410.96 359.84,409.56 359.88,408.17 359.9,407.02 359.82,407.02 359.82"/>
<path stroke="black" fill="none" d="M417.24,362.61  L417.24 362.61,417.18 362.57,417.16 362.59,417.18 362.61,417.12 362.63,417.05 362.61,416.82 362.61,416.48 362.63,415.94 362.65,415.16 362.66,414.16 362.68,412.87 362.68,411.34 362.66,409.66 362.63,407.88 362.57,406.14 362.51,404.48 362.45,402.8 362.42,401.1 362.38,399.51 362.38,398.01 362.42,396.88 362.47,396.88 362.47"/>
<path stroke="black" fill="none" d="M418.9,366.56  L418.9 366.56,418.92 366.58,418.94 366.62,418.92 366.62,418.9 366.62,418.98 366.64,418.94 366.64,418.92 366.64,418.79 366.64,418.63 366.64,418.39 366.64,418.04 366.62,417.53 366.62,416.8 366.62,415.83 366.64,414.53 366.68,413.04 366.75,411.28 366.85,409.47 366.94,407.5 367.06,405.49 367.15,403.37 367.25,401.23 367.29,399.3 367.29,397.55 367.27,396.17 367.21,396.17 367.21"/>
<path stroke="black" fill="none" d="M421.75,369.56  L421.75 369.56,421.75 369.54,421.77 369.54,421.75 369.54,421.77 369.56,421.63 369.58,421.38 369.58,421.04 369.6,420.51 369.62,419.84 369.62,419.02 369.69,418.12 369.77,417.28 369.85,416.3 369.96,415.21 370.06,413.9 370.19,412.31 370.3,410.55 370.44,408.7 370.51,406.77 370.57,404.82 370.57,402.99 370.57,401.25 370.53,399.71 370.48,398.43 370.4,397.28 370.29,397.28 370.29"/>
<path stroke="black" fill="none" d="M421.58,373.76  L421.58 373.76,421.52 373.74,421.52 373.72,421.48 373.7,421.4 373.7,421.38 373.69,421.33 373.7,421.27 373.7,421.08 373.74,420.79 373.76,420.37 373.82,419.74 373.86,418.98 373.95,417.95 374.07,416.67 374.22,415.06 374.43,413.11 374.66,410.92 374.93,408.49 375.16,406.07 375.33,403.7 375.44,401.44 375.52,399.27 375.58,397.22 375.61,395.39 375.6,393.86 375.58,392.7 375.54,392.01 375.52,392.01 375.52"/>
<path stroke="black" fill="none" d="M426.12,378.08  L426.12 378.08,426.2 378.08,426.16 378.08,426.22 378.08,426.18 378.06,426.08 378.06,425.87 378.1,425.51 378.14,424.88 378.19,424.06 378.29,422.93 378.42,421.61 378.56,419.99 378.71,418.19 378.86,416.15 379.01,413.97 379.15,411.72 379.24,409.37 379.3,407.21 379.26,405.11 379.19,403.35 379.07,401.86 378.94,400.58 378.82,400.58 378.82"/>
<path stroke="black" fill="none" d="M427.06,381.82  L427.06 381.82,427.02 381.82,426.94 381.86,426.83 381.9,426.62 381.92,426.33 381.96,425.85 381.99,425.17 382.05,424.23 382.11,423.16 382.15,422.01 382.2,420.64 382.24,419.07 382.3,417.33 382.38,415.33 382.45,413.27 382.53,411.13 382.6,409.05 382.62,407.21 382.64,405.63 382.64,404.29 382.66,403.14 382.68,403.14 382.68"/>
<path stroke="black" fill="none" d="M430.04,385.89  L430.04 385.89,430.04 385.87,429.98 385.85,429.86 385.83,429.77 385.79,429.64 385.76,429.48 385.74,429.29 385.74,429.08 385.74,428.81 385.78,428.37 385.87,427.73 385.99,426.64 386.1,425.15 386.21,423.49 386.35,421.56 386.46,419.57 386.63,417.33 386.81,414.93 386.96,412.35 387.07,409.85 387.13,407.65 387.15,405.65 387.17,403.93 387.19,402.42 387.19,402.42 387.19"/>
<path stroke="black" fill="none" d="M433.19,389.19  L433.19 389.19,433.17 389.18,433.21 389.19,433.19 389.21,433.23 389.21,433.11 389.23,432.86 389.23,432.27 389.33,430.95 389.5,429.43 389.73,427.69 389.98,425.87 390.21,424.13 390.47,422.11 390.78,419.76 391.12,417.33 391.43,415.02 391.66,412.85 391.79,410.9 391.87,409.2 391.91,407.79 391.89,406.75 391.85,406.75 391.85"/>
<path stroke="black" fill="none" d="M432.67,393.45  L432.67 393.45,432.81 393.47,432.92 393.49,432.98 393.51,433.0 393.53,433.02 393.55,433.0 393.55,433.0 393.57,432.96 393.57,432.84 393.57,432.67 393.59,432.35 393.63,431.81 393.7,431.07 393.8,430.0 393.93,428.7 394.08,427.21 394.24,425.45 394.43,423.52 394.69,421.4 394.92,419.21 395.13,417.01 395.31,414.87 395.38,412.81 395.46,410.9 395.52,409.26 395.5,409.26 395.5"/>
<path stroke="black" fill="none" d="M434.7,397.87  L434.7 397.87,434.62 397.88,434.49 397.92,434.28 397.94,433.88 397.94,433.53 397.98,433.19 398.04,432.67 398.13,431.66 398.29,430.07 398.4,428.09 398.51,426.01 398.59,424.15 398.65,422.53 398.74,420.85 398.84,419.17 398.93,417.56 398.99,416.13 398.99,415.04 399.03,414.26 399.11,413.76 399.2,413.76 399.2"/>
<path stroke="black" fill="none" d="M438.31,402.54  L438.31 402.54,438.4 402.51,438.42 402.49,438.42 402.47,438.4 402.47,438.36 402.47,438.31 402.47,438.21 402.49,437.91 402.54,437.37 402.6,436.53 402.75,435.35 402.95,433.99 403.21,432.35 403.54,430.51 403.84,428.58 404.13,426.5 404.38,424.4 404.57,422.32 404.72,420.35 404.86,418.63 404.93,417.24 404.93,416.23 404.91,415.62 404.86,415.62 404.86"/>
<path stroke="black" fill="none" d="M442.05,405.87  L442.05 405.87,442.13 405.87,442.2 405.85,442.3 405.85,442.39 405.85,442.58 405.85,442.74 405.85,442.87 405.85,442.99 405.85,443.04 405.85,443.0 405.87,443.0 405.89,442.97 405.91,442.83 405.93,442.58 405.98,442.13 406.04,441.29 406.14,440.03 406.25,438.38 406.36,436.38 406.48,434.18 406.61,431.79 406.77,429.2 406.92,426.6 407.05,424.08 407.11,421.92 407.17,420.12 407.24,418.77 407.32,417.85 407.43,417.85 407.43"/>
<path stroke="black" fill="none" d="M444.78,409.46  L444.78 409.46,444.84 409.46,444.82 409.46,444.76 409.46,444.65 409.46,444.4 409.5,443.98 409.54,443.33 409.61,442.45 409.75,441.31 409.9,439.91 410.11,438.33 410.34,436.59 410.59,434.73 410.85,432.81 411.12,430.74 411.35,428.62 411.52,426.58 411.64,424.75 411.71,423.26 411.73,422.11 411.75,421.36 411.77,421.0 411.81,421.0 411.81"/>
<path stroke="black" fill="none" d="M447.28,414.14  L447.28 414.14,447.34 414.14,447.44 414.14,447.49 414.14,447.53 414.16,447.49 414.16,447.47 414.18,447.44 414.2,447.36 414.2,447.26 414.21,447.07 414.21,446.61 414.23,445.85 414.27,444.76 414.33,443.27 414.39,441.59 414.44,439.76 414.5,437.7 414.58,435.58 414.67,433.4 414.75,431.28 414.81,429.39 414.83,427.8 414.83,426.66 414.85,425.91 414.92,425.57 415.02,425.57 415.02"/>
<path stroke="black" fill="none" d="M448.56,417.35  L448.56 417.35,448.62 417.35,448.64 417.37,448.66 417.39,448.64 417.4,448.6 417.44,448.52 417.48,448.3 417.56,447.99 417.67,447.59 417.88,446.9 418.13,445.95 418.44,444.63 418.72,443.02 419.01,441.13 419.31,439.13 419.64,437.08 419.94,435.04 420.23,433.07 420.48,431.2 420.67,429.43 420.82,427.86 420.9,426.54 420.96,425.64 421.0,425.17 421.05,425.01 421.11,425.01 421.11"/>
<path stroke="black" fill="none" d="M450.22,422.41  L450.22 422.41,450.34 422.41,450.42 422.41,450.53 422.41,450.7 422.39,450.87 422.39,451.14 422.35,451.37 422.33,451.62 422.33,451.81 422.29,451.98 422.31,452.06 422.35,451.96 422.39,451.92 422.41,451.83 422.45,451.71 422.47,451.6 422.54,451.2 422.66,450.53 422.81,449.56 423.02,448.18 423.27,446.54 423.55,444.69 423.86,442.58 424.15,440.48 424.41,438.27 424.66,436.11 424.85,434.1 425.01,432.29 425.14,430.78 425.25,429.58 425.37,428.83 425.48,428.83 425.48"/>
<path stroke="black" fill="none" d="M453.11,426.76  L453.11 426.76,453.24 426.8,453.36 426.84,453.4 426.86,453.41 426.9,453.38 426.94,453.3 426.95,453.19 427.01,453.05 427.11,452.78 427.22,452.25 427.41,451.5 427.6,450.4 427.79,448.93 427.97,447.21 428.14,445.26 428.31,443.25 428.48,441.29 428.65,439.4 428.81,437.58 428.9,435.82 428.96,434.28 429.02,432.98 429.04,432.04 429.07,431.51 429.15,431.51 429.15"/>
<path stroke="black" fill="none" d="M455.5,431.84  L455.5 431.84,455.55 431.86,455.55 431.88,455.59 431.9,455.59 431.92,455.53 431.94,455.48 431.94,455.44 431.94,455.52 431.94,455.48 431.94,455.4 431.98,455.31 432.0,455.06 432.03,454.75 432.09,454.27 432.17,453.49 432.24,452.42 432.4,450.97 432.57,449.33 432.74,447.47 432.97,445.58 433.18,443.71 433.41,441.9 433.68,440.22 433.93,438.71 434.17,437.49 434.4,436.51 434.59,435.8 434.77,435.8 434.77"/>
<path stroke="black" fill="none" d="M460.33,435.03  L460.33 435.03,460.6 435.03,460.71 435.05,460.88 435.07,461.04 435.07,461.13 435.09,461.23 435.11,461.28 435.15,461.23 435.17,461.23 435.19,461.23 435.21,461.21 435.22,461.26 435.22,461.19 435.26,461.07 435.3,460.92 435.36,460.63 435.47,460.18 435.66,459.47 435.89,458.48 436.14,457.27 436.43,455.78 436.71,454.16 437.0,452.48 437.29,450.59 437.57,448.58 437.78,446.52 437.9,444.44 437.94,442.6 437.92,441.08 437.92,439.87 437.94,439.05 438.01,439.05 438.01"/>
<path stroke="black" fill="none" d="M460.9,440.15  L460.9 440.15,460.92 440.19,460.88 440.23,460.92 440.29,460.84 440.32,460.69 440.42,460.39 440.53,459.89 440.69,459.32 440.86,458.49 441.09,457.44 441.36,456.09 441.64,454.48 442.04,452.65 442.42,450.82 442.81,448.91 443.23,447.03 443.57,445.35 443.86,443.65 444.09,442.18 444.3,441.0 444.49,440.04 444.68,439.55 444.83,439.55 444.83"/>
</svg>